<svg width="1838" height="1834" xmlns="http://www.w3.org/2000/svg" xmlns:xlink="http://www.w3.org/1999/xlink" overflow="hidden"><defs><clipPath id="clip0"><rect x="788" y="320" width="1838" height="1834"/></clipPath><clipPath id="clip1"><rect x="792" y="322" width="1831" height="1831"/></clipPath><clipPath id="clip2"><rect x="792" y="322" width="1831" height="1831"/></clipPath><clipPath id="clip3"><rect x="792" y="322" width="1831" height="1831"/></clipPath></defs><g clip-path="url(#clip0)" transform="translate(-788 -320)"><path d="M1060 1233C1060 873.463 1351.24 582 1710.5 582 2069.76 582 2361 873.463 2361 1233 2361 1592.54 2069.76 1884 1710.5 1884 1351.24 1884 1060 1592.54 1060 1233Z" fill="#96D5E7" fill-rule="evenodd" fill-opacity="1"/><g clip-path="url(#clip1)"><g clip-path="url(#clip2)"><g clip-path="url(#clip3)"><path d="M915 190.625C514.688 190.625 190.625 514.688 190.625 915 190.625 1315.31 514.688 1639.38 915 1639.38 1315.31 1639.38 1639.38 1315.31 1639.38 915 1639.38 514.688 1315.31 190.625 915 190.625ZM915 1563.13C558.531 1563.13 266.875 1271.47 266.875 915 266.875 558.531 558.531 266.875 915 266.875 1008.41 266.875 1096.09 285.938 1176.16 322.156L1115.16 371.719C1107.53 377.438 1099.91 381.25 1090.38 381.25L1054.16 381.25C1050.34 381.25 1044.63 381.25 1040.81 379.344 1040.81 379.344 947.406 324.063 894.031 324.063 842.563 324.063 758.688 356.469 722.469 381.25 667.188 417.469 726.281 434.625 739.625 438.438 741.531 438.438 743.438 438.438 743.438 438.438L796.813 438.438C810.156 438.438 821.594 432.719 829.219 421.281L850.188 388.875C854 383.156 859.719 381.25 865.438 381.25L895.938 381.25 855.906 447.969C846.375 465.125 827.313 476.563 806.344 476.563L754.875 476.563C747.25 476.563 739.625 478.469 733.906 482.281L686.25 514.688 648.125 514.688C636.688 514.688 629.063 522.313 629.063 533.75L629.063 552.813C629.063 564.25 621.438 571.875 610 571.875L592.844 571.875C579.5 571.875 568.063 577.594 560.438 589.031L537.563 625.25C535.656 629.063 533.75 632.875 533.75 636.688L533.75 648.125C533.75 659.563 541.375 667.188 552.813 667.188L621.438 667.188C627.156 667.188 630.969 665.281 634.781 661.469L693.875 602.375C701.5 594.75 711.031 590.938 720.563 590.938L728.188 590.938C737.719 590.938 745.344 596.656 747.25 606.188L758.688 653.844C760.594 661.469 768.219 669.094 777.75 669.094L781.563 669.094C793 669.094 800.625 661.469 800.625 650.031L800.625 600.469C800.625 594.75 802.531 590.938 806.344 587.125L819.688 571.875 834.938 615.719C836.844 623.344 844.469 629.063 852.094 629.063L869.25 629.063C874.969 629.063 878.781 627.156 882.594 623.344L890.219 615.719C894.031 611.906 897.844 610 903.563 610L915 610C926.438 610 934.063 617.625 934.063 629.063L934.063 648.125C934.063 659.563 941.688 667.188 953.125 667.188L1021.75 667.188C1035.09 667.188 1044.63 680.531 1038.91 691.969L1033.19 709.125C1029.38 718.656 1021.75 724.375 1012.22 722.469L920.719 707.219C916.906 707.219 911.188 707.219 907.375 707.219L829.219 722.469C821.594 724.375 815.875 722.469 808.25 720.563 783.469 711.031 714.844 686.25 686.25 686.25 459.406 686.25 457.5 838.75 457.5 895.938 457.5 972.188 501.344 1029.38 571.875 1029.38 655.75 1029.38 762.5 1025.56 762.5 1181.88L762.5 1300.06C762.5 1322.94 770.125 1343.91 785.375 1361.06L840.656 1427.78C852.094 1441.13 867.344 1448.75 884.5 1448.75L930.25 1448.75C945.5 1448.75 960.75 1443.03 970.281 1431.59L1016.03 1385.84C1025.56 1376.31 1031.28 1366.78 1037 1355.34L1075.13 1277.19C1080.84 1263.84 1084.66 1248.59 1084.66 1235.25L1084.66 1147.56C1084.66 1132.31 1090.38 1117.06 1101.81 1107.53L1202.84 1006.5C1210.47 998.875 1210.47 983.625 1200.94 977.906 1200.94 977.906 1086.56 913.094 1023.66 791.094 1017.94 777.75 1025.56 762.5 1040.81 762.5L1048.44 762.5 1157.09 903.563C1170.44 920.719 1195.22 922.625 1212.38 909.281L1275.28 855.906C1284.81 848.281 1284.81 831.125 1273.38 825.406L1216.19 791.094C1208.56 785.375 1204.75 775.844 1208.56 766.313L1210.47 762.5C1216.19 752.969 1227.63 749.156 1237.16 754.875L1305.78 796.813C1311.5 800.625 1319.13 802.531 1324.84 802.531L1345.81 802.531C1361.06 802.531 1374.41 812.063 1380.13 825.406L1435.41 951.219C1441.13 964.563 1454.47 974.094 1469.72 974.094 1486.88 974.094 1502.13 958.844 1502.13 941.688L1502.13 888.313C1502.13 882.594 1504.03 876.875 1509.75 873.063L1553.59 838.75C1557.41 863.531 1559.31 890.219 1559.31 916.906 1563.13 1271.47 1271.47 1563.13 915 1563.13Z" stroke="#FFFFFF" stroke-width="5.73308" stroke-linecap="butt" stroke-linejoin="miter" stroke-miterlimit="4" stroke-opacity="1" fill="#385723" fill-rule="nonzero" fill-opacity="1" transform="matrix(1 0 0 1.00055 792 322)"/><path d="M571.875 514.688 571.875 533.75 590.938 533.75C602.375 533.75 610 526.125 610 514.688L610 495.625 629.063 495.625 629.063 465.125C629.063 459.406 627.156 455.594 623.344 451.781L604.281 432.719C596.656 425.094 585.219 425.094 577.594 432.719L547.094 463.219C539.469 470.844 539.469 482.281 547.094 489.906L571.875 514.688Z" stroke="#FFFFFF" stroke-width="5.73308" stroke-linecap="butt" stroke-linejoin="miter" stroke-miterlimit="4" stroke-opacity="1" fill="#385723" fill-rule="nonzero" fill-opacity="1" transform="matrix(1 0 0 1.00055 792 322)"/></g></g></g><path d="M969 1237.5C969 829.638 1299.41 499 1707 499 2114.59 499 2445 829.638 2445 1237.5 2445 1645.36 2114.59 1976 1707 1976 1299.41 1976 969 1645.36 969 1237.5Z" stroke="#181717" stroke-width="174.167" stroke-linecap="butt" stroke-linejoin="miter" stroke-miterlimit="8" stroke-opacity="1" fill="none" fill-rule="evenodd"/></g></svg>