<svg width="963" height="962" xmlns="http://www.w3.org/2000/svg" xmlns:xlink="http://www.w3.org/1999/xlink" overflow="hidden"><defs><clipPath id="clip0"><rect x="1168" y="756" width="963" height="962"/></clipPath><clipPath id="clip1"><path d="M1667.37 1714.56 1172.94 1254.87 1632.63 760.436 2127.06 1220.13Z" fill-rule="nonzero" clip-rule="nonzero"/></clipPath><clipPath id="clip2"><path d="M1667.37 1714.56 1172.94 1254.87 1632.63 760.436 2127.06 1220.13Z" fill-rule="evenodd" clip-rule="evenodd"/></clipPath><clipPath id="clip3"><path d="M1667.37 1714.56 1172.94 1254.87 1632.63 760.436 2127.06 1220.13Z" fill-rule="evenodd" clip-rule="evenodd"/></clipPath></defs><g clip-path="url(#clip0)" transform="translate(-1168 -756)"><g clip-path="url(#clip1)"><g clip-path="url(#clip2)"><g clip-path="url(#clip3)"><path d="M1800.98 1147.41C1840.64 1104.74 1907.39 1102.31 1950.06 1141.98 1992.73 1181.65 1995.16 1248.4 1955.49 1291.06 1915.82 1333.73 1849.07 1336.16 1806.4 1296.49 1763.74 1256.82 1761.31 1190.08 1800.98 1147.41Z" fill="#C00000" fill-rule="nonzero" fill-opacity="1"/><path d="M1420.28 1228.45 1272.69 1261.19 1646.39 1247.58 1345.54 1307.8 1604.25 1292.91 1511.84 1324.14 1676.42 1307.2 1633.49 1330.66 1817.38 1338.39C1806.23 1332.82 1796.52 1325.71 1787.25 1317.09 1733.17 1266.82 1730.1 1182.34 1780.37 1128.26 1792.35 1115.38 1805.93 1105.93 1820.59 1098.43L1608.77 1116.59 1642.37 1137.26 1498.85 1131.54 1594.68 1166.86 1395.91 1174.1 1512.69 1197.22 1320.57 1209.69 1420.28 1228.45Z" fill="#C00000" fill-rule="nonzero" fill-opacity="1"/><path d="M1465.01 1336.29C1463.28 1329.89 1455.7 1326.68 1448.34 1329.44 1438.98 1332.26 1440.46 1331.71 1413.35 1352.6 1413.35 1352.6 1447.25 1354.36 1455.13 1352.08 1461.98 1348.84 1466.73 1342.7 1465.01 1336.29Z" fill="#C00000" fill-rule="nonzero" fill-opacity="1"/><path d="M1558.98 1101.98C1560.24 1095.47 1555.05 1089.69 1547.03 1087.99 1539.52 1086.77 1492.73 1086.48 1492.73 1086.48 1492.73 1086.48 1535.38 1109.81 1542.89 1111.03 1550.4 1112.25 1558.2 1107.98 1558.98 1101.98Z" fill="#C00000" fill-rule="nonzero" fill-opacity="1"/></g></g></g><path d="M1771 1221C1771 1161.91 1818.91 1114 1878 1114 1937.09 1114 1985 1161.91 1985 1221 1985 1280.09 1937.09 1328 1878 1328 1818.91 1328 1771 1280.09 1771 1221Z" fill="#3B3838" fill-rule="evenodd" fill-opacity="1"/></g></svg>