<svg width="1819" height="641" xmlns="http://www.w3.org/2000/svg" xmlns:xlink="http://www.w3.org/1999/xlink" xml:space="preserve" overflow="hidden"><defs><clipPath id="clip0"><rect x="779" y="724" width="1819" height="641"/></clipPath><clipPath id="clip1"><rect x="782" y="803" width="505" height="401"/></clipPath><clipPath id="clip2"><rect x="782" y="803" width="505" height="401"/></clipPath><clipPath id="clip3"><rect x="782" y="803" width="505" height="401"/></clipPath></defs><g clip-path="url(#clip0)" transform="translate(-779 -724)"><g clip-path="url(#clip1)"><g clip-path="url(#clip2)"><g clip-path="url(#clip3)"><path d="M504.434 78.4C504.434 38.1971 475.476 5.4798 435.261 5.4798 411.498 5.4798 394.248 13.7379 383.36 27.3123 381.324 28.8611 379.541 30.6424 377.768 32.4493 342.668 11.9764 299.772 0.137931 252.443 0 203.305 0.13399 159.842 11.602 124.776 31.8404 113.618 15.464 94.1537 5.4798 67.7793 5.4798 27.5645 5.4798 0 38.1971 0 78.4 0 109.232 15.137 133.734 38.3764 144.812 34.8 159.368 32.731 174.642 32.731 190.704 32.731 307.107 129.236 399.509 252.432 399.509L252.548 399.509C371.634 399.509 472.248 303.32 472.248 190.808 472.248 174.388 469.831 158.666 465.703 143.637 488.603 132.014 504.434 108.097 504.434 78.4" fill="#090B08" fill-rule="nonzero" fill-opacity="1" transform="matrix(1.00091 0 0 1 782 803)"/><path d="M446.909 191.941C446.909 289.238 357.407 372.244 252.081 372.244 146.753 372.244 57.2375 293.364 57.2375 196.065 57.2375 98.7547 146.753 19.8857 252.081 19.8857 357.407 19.8857 446.909 94.6306 446.909 191.941" fill="#FFFFFF" fill-rule="nonzero" fill-opacity="1" transform="matrix(1.00091 0 0 1 782 803)"/><path d="M212.451 154.562C207.986 188.516 185.393 213.545 162.02 210.459 138.644 207.375 123.314 177.35 127.791 143.395 132.268 109.44 154.847 84.4138 178.235 87.4976 201.61 90.5695 216.94 120.593 212.451 154.562" fill="#090B08" fill-rule="nonzero" fill-opacity="1" transform="matrix(1.00091 0 0 1 782 803)"/><path d="M193.852 122.3C193.852 132.424 185.641 140.637 175.515 140.637 165.389 140.637 157.178 132.424 157.178 122.3 157.178 112.173 165.389 103.961 175.515 103.961 185.641 103.961 193.852 112.173 193.852 122.3" fill="#FFFFFF" fill-rule="nonzero" fill-opacity="1" transform="matrix(1.00091 0 0 1 782 803)"/><path d="M291.45 154.562C295.927 188.516 318.507 213.545 341.882 210.459 365.269 207.375 380.587 177.35 376.11 143.395 371.634 109.44 349.052 84.4138 325.677 87.4976 302.292 90.5695 286.974 120.593 291.45 154.562" fill="#090B08" fill-rule="nonzero" fill-opacity="1" transform="matrix(1.00091 0 0 1 782 803)"/><path d="M310.061 122.3C310.059 132.425 318.265 140.634 328.39 140.637 328.393 140.637 328.396 140.637 328.398 140.637 338.524 140.637 346.723 132.424 346.723 122.3 346.723 112.173 338.524 103.961 328.398 103.961 318.273 103.958 310.063 112.165 310.061 122.29 310.061 122.293 310.061 122.296 310.061 122.3" fill="#FFFFFF" fill-rule="nonzero" fill-opacity="1" transform="matrix(1.00091 0 0 1 782 803)"/><path d="M265.72 272.794 265.72 252.68C265.72 251.588 265.616 250.556 265.391 249.614 280.325 246.743 291.163 238.721 291.163 229.163 291.163 219.791 289.08 211.813 274.609 208.78 270.599 207.949 258.028 207.492 253.525 207.492 249.218 207.492 236.828 207.909 232.975 208.676 218.215 211.606 215.874 219.675 215.874 229.163 215.874 240.999 232.396 250.583 252.895 250.782 252.816 251.405 252.706 252.006 252.706 252.68L252.706 273.73C222.587 273.358 194.556 252.818 194.556 266.54 194.556 280.4 224.384 293.533 254.814 293.533 285.241 293.533 309.905 282.302 309.905 268.439 309.905 256.481 290.568 269.104 265.72 272.794" fill="#090B08" fill-rule="nonzero" fill-opacity="1" transform="matrix(1.00091 0 0 1 782 803)"/><path d="M269.844 225.037C269.844 228.903 260.266 232.051 253.525 232.051 246.784 232.051 237.192 228.903 237.192 225.037 237.192 221.953 242.071 219.336 246.861 218.386 248.11 218.138 252.132 218.008 253.525 218.008 254.983 218.008 259.056 218.166 260.357 218.426 265.042 219.401 269.844 221.99 269.844 225.037" fill="#E7EBE0" fill-rule="nonzero" fill-opacity="1" transform="matrix(1.00091 0 0 1 782 803)"/><path d="M252.081 19.8857C146.753 19.8857 57.2375 98.7547 57.2375 196.065 57.2375 293.364 146.753 372.244 252.081 372.244 247.876 372.244 243.699 372.075 239.561 371.829 245.052 371.49 250.479 370.93 255.854 370.162 163.724 357.2 90.2444 284.213 90.2444 196.065 90.2444 107.671 164.128 34.5281 256.623 21.8778 251.053 21.1331 245.457 20.5994 239.846 20.2778 243.907 20.0434 247.98 19.8857 252.081 19.8857" fill="#E1DEDC" fill-rule="nonzero" fill-opacity="1" transform="matrix(1.00091 0 0 1 782 803)"/><path d="M252.081 19.8857C257.716 19.8857 263.299 20.1478 268.843 20.5636 264.743 20.8887 260.656 21.3182 256.623 21.8778 348.727 34.2168 422.156 103.805 422.156 191.941 422.156 280.309 348.311 356.849 255.854 370.162 259.98 370.735 264.144 371.19 268.335 371.529 262.96 371.971 257.547 372.244 252.081 372.244 357.407 372.244 446.909 289.238 446.909 191.941 446.909 94.6306 357.407 19.8857 252.081 19.8857" fill="#F1EFEE" fill-rule="nonzero" fill-opacity="1" transform="matrix(1.00091 0 0 1 782 803)"/><path d="M255.854 370.162C250.479 370.93 245.052 371.49 239.561 371.829 243.699 372.075 247.876 372.244 252.081 372.244 257.547 372.244 262.96 371.971 268.335 371.529 264.144 371.19 259.98 370.735 255.854 370.162M252.081 19.8857C247.98 19.8857 243.907 20.0434 239.846 20.2778 245.496 20.603 251.092 21.137 256.623 21.8778 260.656 21.3182 264.743 20.8887 268.843 20.5636 263.266 20.1283 257.675 19.9022 252.081 19.8857" fill="#D3D0CD" fill-rule="nonzero" fill-opacity="1" transform="matrix(1.00091 0 0 1 782 803)"/><path d="M451.247 107.454C459.307 100.337 464.493 90.0414 464.493 78.4394 464.493 56.9911 447.106 39.5902 425.643 39.5902 416.304 39.5902 407.848 43.0227 401.149 48.5143 422.101 64.8946 439.113 84.8158 451.247 107.454M51.3281 109.084C62.7902 85.7872 79.2907 65.5212 99.9744 48.9458 93.1981 43.1941 84.536 39.5902 74.9517 39.5902 53.5035 39.5902 36.1025 56.9911 36.1025 78.4394 36.1025 90.9636 42.1301 101.98 51.3281 109.084" fill="#FFFFFF" fill-rule="nonzero" fill-opacity="1" transform="matrix(1.00091 0 0 1 782 803)"/></g></g></g><text fill="#FFFFFF" fill-opacity="1" font-family="Arial,Arial_MSFontService,sans-serif" font-style="normal" font-variant="normal" font-weight="400" font-stretch="normal" font-size="303" text-anchor="start" direction="ltr" writing-mode="lr-tb" unicode-bidi="normal" text-decoration="none" transform="matrix(1 0 0 1 1319.75 1113)">Ibanban</text></g></svg>