<svg width="1155" height="1247" xmlns="http://www.w3.org/2000/svg" xmlns:xlink="http://www.w3.org/1999/xlink" overflow="hidden"><defs><clipPath id="clip0"><rect x="1934" y="563" width="1155" height="1247"/></clipPath><clipPath id="clip1"><rect x="2346" y="1257" width="331" height="331"/></clipPath><clipPath id="clip2"><rect x="2346" y="1257" width="331" height="331"/></clipPath><clipPath id="clip3"><rect x="2346" y="1257" width="331" height="331"/></clipPath><clipPath id="clip4"><rect x="2346" y="729" width="331" height="331"/></clipPath><clipPath id="clip5"><rect x="2346" y="729" width="331" height="331"/></clipPath><clipPath id="clip6"><rect x="2346" y="729" width="331" height="331"/></clipPath></defs><g clip-path="url(#clip0)" transform="translate(-1934 -563)"><path d="M2479.75 594.437C2793.29 577.026 3061.85 822.066 3079.6 1141.75" stroke="#ADD8E6" stroke-width="16.0417" stroke-linecap="butt" stroke-linejoin="miter" stroke-miterlimit="8" stroke-opacity="1" fill="none" fill-rule="evenodd"/><g clip-path="url(#clip1)"><g clip-path="url(#clip2)"><g clip-path="url(#clip3)"><path d="M2590.06 1332.63C2597.97 1332.63 2612.63 1345.5 2627.83 1381.8 2640.62 1412.32 2648.89 1448.94 2648.89 1475.1 2648.89 1491.64 2645.84 1511.38 2631.31 1511.38 2611.21 1511.38 2603.9 1504.04 2593.79 1493.9 2580.18 1480.24 2563.25 1463.25 2511 1463.25 2458.75 1463.25 2441.82 1480.24 2428.21 1493.9 2418.09 1504.04 2410.79 1511.38 2390.69 1511.38 2385.12 1511.46 2380.08 1508.11 2378.02 1502.94 2374.32 1494.14 2372.65 1484.63 2373.11 1475.1 2373.11 1448.94 2381.36 1412.32 2394.16 1381.8 2409.37 1345.5 2424.03 1332.63 2431.94 1332.63 2448.09 1332.63 2452.66 1335.96 2458.45 1340.19 2466.88 1346.3 2476.42 1353.25 2511 1353.25 2545.58 1353.25 2555.12 1346.3 2563.55 1340.19 2569.34 1335.96 2573.91 1332.63 2590.06 1332.63M2590.06 1325.75C2549.5 1325.75 2570.12 1346.38 2511 1346.38 2451.88 1346.38 2472.5 1325.75 2431.94 1325.75 2388.62 1325.75 2333.62 1518.25 2390.69 1518.25 2443.28 1518.25 2423.34 1470.13 2511 1470.13 2598.66 1470.13 2578.72 1518.25 2631.31 1518.25 2688.38 1518.25 2633.38 1325.75 2590.06 1325.75Z" fill="#F4B183" fill-rule="nonzero" fill-opacity="1"/><path d="M2600.38 1408.25C2600.38 1412.05 2597.3 1415.13 2593.5 1415.13 2589.7 1415.13 2586.62 1412.05 2586.62 1408.25 2586.62 1404.45 2589.7 1401.38 2593.5 1401.38 2597.3 1401.38 2600.38 1404.45 2600.38 1408.25Z" fill="#F4B183" fill-rule="nonzero" fill-opacity="1"/><path d="M2579.75 1428.88C2579.75 1432.67 2576.67 1435.75 2572.88 1435.75 2569.08 1435.75 2566 1432.67 2566 1428.88 2566 1425.08 2569.08 1422 2572.88 1422 2576.67 1422 2579.75 1425.08 2579.75 1428.88Z" fill="#F4B183" fill-rule="nonzero" fill-opacity="1"/><path d="M2559.12 1408.25C2559.12 1412.05 2556.05 1415.13 2552.25 1415.13 2548.45 1415.13 2545.38 1412.05 2545.38 1408.25 2545.38 1404.45 2548.45 1401.38 2552.25 1401.38 2556.05 1401.38 2559.12 1404.45 2559.12 1408.25Z" fill="#F4B183" fill-rule="nonzero" fill-opacity="1"/><path d="M2579.75 1387.63C2579.75 1391.42 2576.67 1394.5 2572.88 1394.5 2569.08 1394.5 2566 1391.42 2566 1387.63 2566 1383.83 2569.08 1380.75 2572.88 1380.75 2576.67 1380.75 2579.75 1383.83 2579.75 1387.63Z" fill="#F4B183" fill-rule="nonzero" fill-opacity="1"/><path d="M2473.19 1404.81 2452.56 1404.81 2452.56 1384.19C2452.56 1382.29 2451.02 1380.75 2449.12 1380.75 2447.23 1380.75 2445.69 1382.29 2445.69 1384.19L2445.69 1404.81 2425.06 1404.81C2423.16 1404.81 2421.62 1406.35 2421.62 1408.25 2421.62 1410.15 2423.16 1411.69 2425.06 1411.69L2445.69 1411.69 2445.69 1432.31C2445.69 1434.21 2447.23 1435.75 2449.12 1435.75 2451.02 1435.75 2452.56 1434.21 2452.56 1432.31L2452.56 1411.69 2473.19 1411.69C2475.09 1411.69 2476.62 1410.15 2476.62 1408.25 2476.62 1406.35 2475.09 1404.81 2473.19 1404.81Z" fill="#F4B183" fill-rule="nonzero" fill-opacity="1"/></g></g></g><path d="M2511.5 1798C2197.53 1798 1943 1538.33 1943 1218 1943 1191.65 1944.76 1165.33 1948.27 1139.22" stroke="#ADD8E6" stroke-width="16.0417" stroke-linecap="butt" stroke-linejoin="miter" stroke-miterlimit="8" stroke-opacity="1" fill="none" fill-rule="evenodd"/><path d="M0 0 1137.16 0.000360892" stroke="#ADD8E6" stroke-width="16.0417" stroke-linecap="butt" stroke-linejoin="miter" stroke-miterlimit="8" stroke-opacity="1" fill="none" fill-rule="evenodd" transform="matrix(-1 0 0 1 3080.16 1140)"/><g clip-path="url(#clip4)"><g clip-path="url(#clip5)"><g clip-path="url(#clip6)"><path d="M2596.94 756.5 2411.31 756.5 2411.31 1031.37 2596.94 1031.37C2606.44 1031.38 2614.16 1023.69 2614.19 1014.18L2614.19 773.688C2614.16 764.181 2606.44 756.491 2596.94 756.5ZM2418.19 763.375 2439.71 763.375 2439.71 1024.49 2418.19 1024.49ZM2607.32 1014.19C2607.29 1019.9 2602.65 1024.51 2596.94 1024.5L2446.58 1024.5 2446.58 763.375 2596.94 763.375C2602.65 763.362 2607.29 767.976 2607.32 773.688Z" fill="#A9D18E" fill-rule="nonzero" fill-opacity="1"/><path d="M2480.06 845.875 2576.31 845.875 2576.31 852.75 2480.06 852.75Z" fill="#A9D18E" fill-rule="nonzero" fill-opacity="1"/><path d="M2500.69 883.688 2555.69 883.688 2555.69 890.563 2500.69 890.563Z" fill="#A9D18E" fill-rule="nonzero" fill-opacity="1"/></g></g></g></g></svg>